<svg width="63" height="40" viewBox="0 0 63 40" fill="none" xmlns="http://www.w3.org/2000/svg">
<path d="M25.4653 29.4003C25.4653 29.4003 25.4653 29.1867 25.4653 28.7593V27.2784V25.7975V25.1565H26.1063H27.5872H29.0681H29.7091C29.7091 25.1565 29.7091 25.3701 29.7091 25.7975V27.2784V28.7593V29.4003C29.7091 29.4003 29.4955 29.4003 29.0681 29.4003H27.5872H26.1063H25.4653ZM29.0018 29.4003C29.0018 29.4003 29.0018 29.1867 29.0018 28.7593V27.2784V25.7975V25.1565H29.6428H31.1237H32.6047H33.2457C33.2457 25.1565 33.2457 25.3701 33.2457 25.7975V27.2784V28.7593V29.4003C33.2457 29.4003 33.032 29.4003 32.6047 29.4003H31.1237H29.6428H29.0018ZM32.5384 29.4003C32.5384 29.4003 32.5384 29.1867 32.5384 28.7593V27.2784V25.7975V25.1565H33.1794H34.6603H36.1412H36.7822C36.7822 25.1565 36.7822 25.3701 36.7822 25.7975V27.2784V28.7593V29.4003C36.7822 29.4003 36.5686 29.4003 36.1412 29.4003H34.6603H33.1794H32.5384ZM21.9287 25.8638C21.9287 25.8638 21.9287 25.6501 21.9287 25.2228V23.7418V22.2609V21.6199H22.5697H24.0506H25.5316H26.1726C26.1726 21.6199 26.1726 21.8336 26.1726 22.2609V23.7418V25.2228V25.8638C26.1726 25.8638 25.9589 25.8638 25.5316 25.8638H24.0506H22.5697H21.9287ZM36.0749 25.8638C36.0749 25.8638 36.0749 25.6501 36.0749 25.2228V23.7418V22.2609V21.6199H36.7159H38.1968H39.6778H40.3188C40.3188 21.6199 40.3188 21.8336 40.3188 22.2609V23.7418V25.2228V25.8638C40.3188 25.8638 40.1051 25.8638 39.6778 25.8638H38.1968H36.7159H36.0749ZM21.9287 22.3272C21.9287 22.3272 21.9287 22.1135 21.9287 21.6862V19.0873V18.3147V17.6737H22.5697H24.0506H25.5316H26.1726C26.1726 17.6737 26.1726 17.8874 26.1726 18.3147V19.0873V21.6862V22.3272C26.1726 22.3272 25.9589 22.3272 25.5316 22.3272H24.0506H22.5697H21.9287ZM36.0749 22.3272C36.0749 22.3272 36.0749 22.1135 36.0749 21.6862V19.0873V18.3147V17.6737H36.7159H38.1968H39.6778H40.3188C40.3188 17.6737 40.3188 17.8874 40.3188 18.3147V19.0873V21.6862V22.3272C40.3188 22.3272 40.1051 22.3272 39.6778 22.3272H38.1968H36.7159H36.0749ZM21.9287 18.381C21.9287 18.381 21.9287 18.1674 21.9287 17.74V16.2591V25.7975V25.1565H22.5697H24.0506H25.5316H26.1726C26.1726 25.1565 26.1726 25.3701 26.1726 25.7975V16.2591V17.74V18.381C26.1726 18.381 25.9589 18.381 25.5316 18.381H24.0506H22.5697H21.9287ZM36.0749 18.381C36.0749 18.381 36.0749 18.1674 36.0749 17.74V16.2591V25.7975V25.1565H36.7159H38.1968H39.6778H40.3188C40.3188 25.1565 40.3188 25.3701 40.3188 25.7975V16.2591V17.74V18.381C40.3188 18.381 40.1051 18.381 39.6778 18.381H38.1968H36.7159H36.0749ZM21.9287 25.8638C21.9287 25.8638 21.9287 25.6501 21.9287 25.2228V23.7418V22.2609V21.6199H22.5697H24.0506H25.5316H26.1726C26.1726 21.6199 26.1726 21.8336 26.1726 22.2609V23.7418V25.2228V25.8638C26.1726 25.8638 25.9589 25.8638 25.5316 25.8638H24.0506H22.5697H21.9287ZM36.0749 25.8638C36.0749 25.8638 36.0749 25.6501 36.0749 25.2228V23.7418V22.2609V21.6199H36.7159H38.1968H39.6778H40.3188C40.3188 21.6199 40.3188 21.8336 40.3188 22.2609V23.7418V25.2228V25.8638C40.3188 25.8638 40.1051 25.8638 39.6778 25.8638H38.1968H36.7159H36.0749ZM21.9287 22.3272C21.9287 22.3272 21.9287 22.1135 21.9287 21.6862V19.0873V18.3147V17.6737H22.5697H24.0506H25.5316H26.1726C26.1726 17.6737 26.1726 17.8874 26.1726 18.3147V19.0873V21.6862V22.3272C26.1726 22.3272 25.9589 22.3272 25.5316 22.3272H24.0506H22.5697H21.9287ZM36.0749 22.3272C36.0749 22.3272 36.0749 22.1135 36.0749 21.6862V19.0873V18.3147V17.6737H36.7159H38.1968H39.6778H40.3188C40.3188 17.6737 40.3188 17.8874 40.3188 18.3147V19.0873V21.6862V22.3272C40.3188 22.3272 40.1051 22.3272 39.6778 22.3272H38.1968H36.7159H36.0749ZM21.9287 18.381C21.9287 18.381 21.9287 18.1674 21.9287 17.74V16.2591V14.7782V14.1372H22.5697H24.0506H25.5316H26.1726C26.1726 14.1372 26.1726 14.3508 26.1726 14.7782V16.2591V17.74V18.381C26.1726 18.381 25.9589 18.381 25.5316 18.381H24.0506H22.5697H21.9287ZM36.0749 18.381C36.0749 18.381 36.0749 18.1674 36.0749 17.74V16.2591V14.7782V14.1372H36.7159H38.1968H39.6778H40.3188C40.3188 14.1372 40.3188 14.3508 40.3188 14.7782V16.2591V17.74V18.381C40.3188 18.381 40.1051 18.381 39.6778 18.381H38.1968H36.7159H36.0749ZM25.4653 14.8445C25.4653 14.8445 25.4653 14.6308 25.4653 14.2035V12.7225V11.2416V10.6006H26.1063H27.5872H29.0681H29.7091C29.7091 10.6006 29.7091 10.8143 29.7091 11.2416V12.7225V14.2035V14.8445C29.7091 14.8445 29.4955 14.8445 29.0681 14.8445H27.5872H26.1063H25.4653ZM29.0018 14.8445C29.0018 14.8445 29.0018 14.6308 29.0018 14.2035V12.7225V11.2416V10.6006H29.6428H31.1237H32.6047H33.2457C33.2457 10.6006 33.2457 10.8143 33.2457 11.2416V12.7225V14.2035V14.8445C33.2457 14.8445 33.032 14.8445 32.6047 14.8445H31.1237H29.6428H29.0018ZM32.5384 14.8445C32.5384 14.8445 32.5384 14.6308 32.5384 14.2035V12.7225V11.2416V10.6006H33.1794H34.6603H36.1412H36.7822C36.7822 10.6006 36.7822 10.8143 36.7822 11.2416V12.7225V14.2035V14.8445C36.7822 14.8445 36.5686 14.8445 36.1412 14.8445H34.6603H33.1794H32.5384Z" fill="black"/>
<path d="M5.26928e-05 40C5.26928e-05 40 5.26928e-05 39.7864 5.26928e-05 39.359V37.8781V36.3971V35.7561H0.641052H2.12198H3.60291H4.24391C4.24391 35.7561 4.24391 35.9698 4.24391 36.3971V37.8781V39.359V40C4.24391 40 4.03024 40 3.60291 40H2.12198H0.641052H5.26928e-05ZM5.26928e-05 36.4635C5.26928e-05 36.4635 5.26928e-05 36.2498 5.26928e-05 35.8224V34.3415V32.8606V32.2196H0.641052H2.12198H3.60291H4.24391C4.24391 32.2196 4.24391 32.4332 4.24391 32.8606V34.3415V35.8224V36.4635C4.24391 36.4635 4.03024 36.4635 3.60291 36.4635H2.12198H0.641052H5.26928e-05ZM5.26928e-05 32.9269C5.26928e-05 32.9269 5.26928e-05 32.7132 5.26928e-05 32.2859V30.8049V29.324V28.683H0.641052H2.12198H3.60291H4.24391C4.24391 28.683 4.24391 28.8967 4.24391 29.324V30.8049V32.2859V32.9269C4.24391 32.9269 4.03024 32.9269 3.60291 32.9269H2.12198H0.641052H5.26928e-05ZM5.26928e-05 29.3903C5.26928e-05 29.3903 5.26928e-05 29.1766 5.26928e-05 28.7493V27.2684V25.7874V25.1464H0.641052H2.12198H3.60291H4.24391C4.24391 25.1464 4.24391 25.3601 4.24391 25.7874V27.2684V28.7493V29.3903C4.24391 29.3903 4.03024 29.3903 3.60291 29.3903H2.12198H0.641052H5.26928e-05ZM7.07315 29.3903C7.07315 29.3903 7.07315 29.1766 7.07315 28.7493V27.2684V25.7874V25.1464H7.71415H9.19508H10.676H11.317C11.317 25.1464 11.317 25.3601 11.317 25.7874V27.2684V28.7493V29.3903C11.317 29.3903 11.1033 29.3903 10.676 29.3903H9.19508H7.71415H7.07315ZM10.6097 29.3903C10.6097 29.3903 10.6097 29.1766 10.6097 28.7493V27.2684V25.7874V25.1464H11.2507H12.7316H14.2126H14.8536C14.8536 25.1464 14.8536 25.3601 14.8536 25.7874V27.2684V28.7493V29.3903C14.8536 29.3903 14.6399 29.3903 14.2126 29.3903H12.7316H11.2507H10.6097ZM5.26928e-05 25.8537C5.26928e-05 25.8537 5.26928e-05 25.6401 5.26928e-05 25.2127V23.7318V22.2509V21.6099H0.641052H2.12198H3.60291H4.24391C4.24391 21.6099 4.24391 21.8235 4.24391 22.2509V23.7318V25.2127V25.8537C4.24391 25.8537 4.03024 25.8537 3.60291 25.8537H2.12198H0.641052H5.26928e-05ZM3.5366 25.8537C3.5366 25.8537 3.5366 25.6401 3.5366 25.2127V23.7318V22.2509V21.6099H4.1776H5.65853H7.13946H7.78046C7.78046 21.6099 7.78046 21.8235 7.78046 22.2509V23.7318V25.2127V25.8537C7.78046 25.8537 7.56679 25.8537 7.13946 25.8537H5.65853H4.1776H3.5366ZM14.1462 25.8537C14.1462 25.8537 14.1462 25.6401 14.1462 25.2127V23.7318V22.2509V21.6099H14.7872H16.2682H17.7491H18.3901C18.3901 21.6099 18.3901 21.8235 18.3901 22.2509V23.7318V25.2127V25.8537C18.3901 25.8537 18.1764 25.8537 17.7491 25.8537H16.2682H14.7872H14.1462ZM5.26928e-05 22.3172C5.26928e-05 22.3172 5.26928e-05 22.1035 5.26928e-05 21.6762V20.1952L0 19.4153V18.7743H0.641H2.12193H3.60286H4.24386C4.24386 18.7743 4.24386 18.988 4.24386 19.4153L4.24391 20.1952V21.6762V22.3172C4.24391 22.3172 4.03024 22.3172 3.60291 22.3172H2.12198H0.641052H5.26928e-05ZM14.1462 22.3172C14.1462 22.3172 14.1462 22.1035 14.1462 21.6762V20.1952L14.1462 19.4153V18.7743H14.7872H16.2681H17.7491H18.3901C18.3901 18.7743 18.3901 18.988 18.3901 19.4153L18.3901 20.1952V21.6762V22.3172C18.3901 22.3172 18.1764 22.3172 17.7491 22.3172H16.2682H14.7872H14.1462ZM0 19.4816C0 19.4816 0 19.268 0 18.8406L5.26928e-05 26.1678V24.6869V24.0458H0.641052H2.12198H3.60291H4.24391C4.24391 24.0458 4.24391 24.2595 4.24391 24.6869V26.1678L4.24386 18.8406V19.4816C4.24386 19.4816 4.03019 19.4816 3.60286 19.4816H2.12193H0.641H0ZM14.1462 19.4816C14.1462 19.4816 14.1462 19.268 14.1462 18.8406L14.1462 26.1678V24.6869V24.0458H14.7872H16.2682H17.7491H18.3901C18.3901 24.0458 18.3901 24.2595 18.3901 24.6869V26.1678L18.3901 18.8406V19.4816C18.3901 19.4816 18.1764 19.4816 17.7491 19.4816H16.2681H14.7872H14.1462ZM5.26928e-05 24.7532C5.26928e-05 24.7532 5.26928e-05 24.5395 5.26928e-05 24.1122V22.6312V21.1503V20.5093H0.641052H2.12198H3.60291H4.24391C4.24391 20.5093 4.24391 20.7229 4.24391 21.1503V22.6312V24.1122V24.7532C4.24391 24.7532 4.03024 24.7532 3.60291 24.7532H2.12198H0.641052H5.26928e-05ZM14.1462 24.7532C14.1462 24.7532 14.1462 24.5395 14.1462 24.1122V22.6312V21.1503V20.5093H14.7872H16.2682H17.7491H18.3901C18.3901 20.5093 18.3901 20.7229 18.3901 21.1503V22.6312V24.1122V24.7532C18.3901 24.7532 18.1764 24.7532 17.7491 24.7532H16.2682H14.7872H14.1462ZM5.26928e-05 21.2166C5.26928e-05 21.2166 5.26928e-05 21.0029 5.26928e-05 20.5756L0 19.7957V18.3147V17.6737H0.641H2.12193H3.60286H4.24386C4.24386 17.6737 4.24386 17.8874 4.24386 18.3147V19.7957L4.24391 20.5756V21.2166C4.24391 21.2166 4.03024 21.2166 3.60291 21.2166H2.12198H0.641052H5.26928e-05ZM14.1462 21.2166C14.1462 21.2166 14.1462 21.0029 14.1462 20.5756L14.1462 19.7957V18.3147V17.6737H14.7872H16.2681H17.7491H18.3901C18.3901 17.6737 18.3901 17.8874 18.3901 18.3147V19.7957L18.3901 20.5756V21.2166C18.3901 21.2166 18.1764 21.2166 17.7491 21.2166H16.2682H14.7872H14.1462ZM0 18.381C0 18.381 0 18.1674 0 17.74V16.2591V14.7782V14.1372H0.641H2.12193H3.60286H4.24386C4.24386 14.1372 4.24386 14.3508 4.24386 14.7782V16.2591V17.74V18.381C4.24386 18.381 4.03019 18.381 3.60286 18.381H2.12193H0.641H0ZM3.53655 18.381C3.53655 18.381 3.53655 18.1674 3.53655 17.74V16.2591V14.7782V14.1372H4.17755H5.65848H7.13941H7.78041C7.78041 14.1372 7.78041 14.3508 7.78041 14.7782V16.2591V17.74V18.381C7.78041 18.381 7.56674 18.381 7.13941 18.381H5.65848H4.17755H3.53655ZM14.1462 18.381C14.1462 18.381 14.1462 18.1674 14.1462 17.74V16.2591V14.7782V14.1372H14.7872H16.2681H17.7491H18.3901C18.3901 14.1372 18.3901 14.3508 18.3901 14.7782V16.2591V17.74V18.381C18.3901 18.381 18.1764 18.381 17.7491 18.381H16.2681H14.7872H14.1462ZM0 14.8445C0 14.8445 0 14.6308 0 14.2035V12.7225V11.2416V10.6006H0.641H2.12193H3.60286H4.24386C4.24386 10.6006 4.24386 10.8143 4.24386 11.2416V12.7225V14.2035V14.8445C4.24386 14.8445 4.03019 14.8445 3.60286 14.8445H2.12193H0.641H0ZM7.0731 14.8445C7.0731 14.8445 7.0731 14.6308 7.0731 14.2035V12.7225V11.2416V10.6006H7.7141H9.19503H10.676H11.317C11.317 10.6006 11.317 10.8143 11.317 11.2416V12.7225V14.2035V14.8445C11.317 14.8445 11.1033 14.8445 10.676 14.8445H9.19503H7.7141H7.0731ZM10.6096 14.8445C10.6096 14.8445 10.6096 14.6308 10.6096 14.2035V12.7225V11.2416V10.6006H11.2506H12.7316H14.2125H14.8535C14.8535 10.6006 14.8535 10.8143 14.8535 11.2416V12.7225V14.2035V14.8445C14.8535 14.8445 14.6398 14.8445 14.2125 14.8445H12.7316H11.2506H10.6096Z" fill="black"/>
<path d="M62.2509 -2.47955e-05C62.2509 -2.47955e-05 62.2509 0.213644 62.2509 0.64098L62.2509 2.12192L62.2509 3.60286L62.2509 4.24386L61.6099 4.24386L60.129 4.24386L58.6481 4.24386L58.0071 4.24386C58.0071 4.24386 58.0071 4.0302 58.0071 3.60286L58.0071 2.12192L58.0071 0.640979L58.0071 -2.51665e-05C58.0071 -2.51665e-05 58.2207 -2.51479e-05 58.6481 -2.51105e-05L60.129 -2.4981e-05L61.6099 -2.48516e-05L62.2509 -2.47955e-05ZM62.2509 3.53655C62.2509 3.53655 62.2509 3.75022 62.2509 4.17755L62.2509 5.65849L62.2509 7.13943L62.2509 7.78043L61.6099 7.78043L60.129 7.78043L58.6481 7.78043L58.0071 7.78043C58.0071 7.78043 58.0071 7.56677 58.0071 7.13943L58.0071 5.65849L58.0071 4.17755L58.0071 3.53655C58.0071 3.53655 58.2207 3.53655 58.6481 3.53655L60.129 3.53655L61.6099 3.53655L62.2509 3.53655ZM62.2509 7.07312C62.2509 7.07312 62.2509 7.28679 62.2509 7.71412L62.2509 9.19506L62.2509 10.676L62.2509 11.317L61.6099 11.317L60.129 11.317L58.6481 11.317L58.0071 11.317C58.0071 11.317 58.0071 11.1033 58.0071 10.676L58.0071 9.19506L58.0071 7.71412L58.0071 7.07312C58.0071 7.07312 58.2207 7.07312 58.6481 7.07312L60.129 7.07312L61.6099 7.07312L62.2509 7.07312ZM62.2509 10.6097C62.2509 10.6097 62.2509 10.8234 62.2509 11.2507L62.2509 12.7316L62.2509 14.2126L62.2509 14.8536L61.6099 14.8536L60.129 14.8536L58.6481 14.8536L58.0071 14.8536C58.0071 14.8536 58.0071 14.6399 58.0071 14.2126L58.0071 12.7316L58.0071 11.2507L58.0071 10.6097C58.0071 10.6097 58.2207 10.6097 58.6481 10.6097L60.129 10.6097L61.6099 10.6097L62.2509 10.6097ZM55.1778 10.6097C55.1778 10.6097 55.1778 10.8234 55.1778 11.2507L55.1778 12.7316L55.1778 14.2126L55.1778 14.8536L54.5368 14.8536L53.0559 14.8536L51.575 14.8536L50.934 14.8536C50.934 14.8536 50.934 14.6399 50.934 14.2126L50.934 12.7316L50.934 11.2507L50.934 10.6097C50.934 10.6097 51.1476 10.6097 51.575 10.6097L53.0559 10.6097L54.5368 10.6097L55.1778 10.6097ZM51.6413 10.6097C51.6413 10.6097 51.6413 10.8234 51.6413 11.2507L51.6413 12.7316L51.6413 14.2126L51.6413 14.8536L51.0003 14.8536L49.5194 14.8536L48.0384 14.8536L47.3974 14.8536C47.3974 14.8536 47.3974 14.6399 47.3974 14.2126L47.3974 12.7316L47.3974 11.2507L47.3974 10.6097C47.3974 10.6097 47.6111 10.6097 48.0384 10.6097L49.5194 10.6097L51.0003 10.6097L51.6413 10.6097ZM62.2509 14.1463C62.2509 14.1463 62.2509 14.3599 62.2509 14.7873L62.2509 16.2682L62.2509 17.7491L62.2509 18.3901L61.6099 18.3901L60.129 18.3901L58.6481 18.3901L58.0071 18.3901C58.0071 18.3901 58.0071 18.1765 58.0071 17.7491L58.0071 16.2682L58.0071 14.7873L58.0071 14.1463C58.0071 14.1463 58.2207 14.1463 58.6481 14.1463L60.129 14.1463L61.6099 14.1463L62.2509 14.1463ZM58.7144 14.1463C58.7144 14.1463 58.7144 14.3599 58.7144 14.7873L58.7144 16.2682L58.7144 17.7491L58.7144 18.3901L58.0734 18.3901L56.5924 18.3901L55.1115 18.3901L54.4705 18.3901C54.4705 18.3901 54.4705 18.1765 54.4705 17.7491L54.4705 16.2682L54.4705 14.7873L54.4705 14.1463C54.4705 14.1463 54.6842 14.1463 55.1115 14.1463L56.5924 14.1463L58.0734 14.1463L58.7144 14.1463ZM48.1047 14.1463C48.1047 14.1463 48.1047 14.3599 48.1047 14.7873L48.1047 16.2682L48.1047 17.7491L48.1047 18.3901L47.4637 18.3901L45.9828 18.3901L44.5019 18.3901L43.8609 18.3901C43.8609 18.3901 43.8609 18.1765 43.8609 17.7491L43.8609 16.2682L43.8609 14.7873L43.8609 14.1463C43.8609 14.1463 44.0745 14.1463 44.5019 14.1463L45.9828 14.1463L47.4637 14.1463L48.1047 14.1463ZM62.2509 17.6828C62.2509 17.6828 62.2509 17.8965 62.2509 18.3238L62.2509 19.8048L62.251 20.5847L62.251 21.2257L61.61 21.2257L60.129 21.2257L58.6481 21.2257L58.0071 21.2257C58.0071 21.2257 58.0071 21.012 58.0071 20.5847L58.0071 19.8048L58.0071 18.3238L58.0071 17.6828C58.0071 17.6828 58.2207 17.6828 58.6481 17.6828L60.129 17.6828L61.6099 17.6828L62.2509 17.6828ZM48.1047 17.6828C48.1047 17.6828 48.1047 17.8965 48.1047 18.3238L48.1047 19.8048L48.1048 20.5847L48.1048 21.2257L47.4638 21.2257L45.9829 21.2257L44.5019 21.2257L43.8609 21.2257C43.8609 21.2257 43.8609 21.012 43.8609 20.5847L43.8609 19.8048L43.8609 18.3238L43.8609 17.6828C43.8609 17.6828 44.0745 17.6828 44.5019 17.6828L45.9828 17.6828L47.4637 17.6828L48.1047 17.6828ZM62.251 20.5184C62.251 20.5184 62.251 20.732 62.251 21.1594L62.2509 13.8322L62.2509 15.3131L62.2509 15.9542L61.6099 15.9542L60.129 15.9542L58.6481 15.9541L58.0071 15.9541C58.0071 15.9541 58.0071 15.7405 58.0071 15.3131L58.0071 13.8322L58.0071 21.1594L58.0071 20.5184C58.0071 20.5184 58.2208 20.5184 58.6481 20.5184L60.129 20.5184L61.61 20.5184L62.251 20.5184ZM48.1048 20.5184C48.1048 20.5184 48.1048 20.732 48.1048 21.1594L48.1047 13.8322L48.1047 15.3131L48.1047 15.9541L47.4637 15.9541L45.9828 15.9541L44.5019 15.9541L43.8609 15.9541C43.8609 15.9541 43.8609 15.7405 43.8609 15.3131L43.8609 13.8322L43.8609 21.1594L43.8609 20.5184C43.8609 20.5184 44.0746 20.5184 44.5019 20.5184L45.9829 20.5184L47.4638 20.5184L48.1048 20.5184ZM62.2509 15.2468C62.2509 15.2468 62.2509 15.4605 62.2509 15.8878L62.2509 17.3688L62.2509 18.8497L62.2509 19.4907L61.6099 19.4907L60.129 19.4907L58.6481 19.4907L58.0071 19.4907C58.0071 19.4907 58.0071 19.2771 58.0071 18.8497L58.0071 17.3688L58.0071 15.8878L58.0071 15.2468C58.0071 15.2468 58.2207 15.2468 58.6481 15.2468L60.129 15.2468L61.6099 15.2468L62.2509 15.2468ZM48.1047 15.2468C48.1047 15.2468 48.1047 15.4605 48.1047 15.8878L48.1047 17.3688L48.1047 18.8497L48.1047 19.4907L47.4637 19.4907L45.9828 19.4907L44.5019 19.4907L43.8609 19.4907C43.8609 19.4907 43.8609 19.2771 43.8609 18.8497L43.8609 17.3688L43.8609 15.8878L43.8609 15.2468C43.8609 15.2468 44.0745 15.2468 44.5019 15.2468L45.9828 15.2468L47.4637 15.2468L48.1047 15.2468ZM62.2509 18.7834C62.2509 18.7834 62.2509 18.9971 62.2509 19.4244L62.251 20.2043L62.251 21.6853L62.251 22.3263L61.61 22.3263L60.129 22.3263L58.6481 22.3263L58.0071 22.3263C58.0071 22.3263 58.0071 22.1126 58.0071 21.6853L58.0071 20.2043L58.0071 19.4244L58.0071 18.7834C58.0071 18.7834 58.2207 18.7834 58.6481 18.7834L60.129 18.7834L61.6099 18.7834L62.2509 18.7834ZM48.1047 18.7834C48.1047 18.7834 48.1047 18.9971 48.1047 19.4244L48.1048 20.2043L48.1048 21.6853L48.1048 22.3263L47.4638 22.3263L45.9829 22.3263L44.5019 22.3263L43.8609 22.3263C43.8609 22.3263 43.8609 22.1126 43.8609 21.6853L43.8609 20.2043L43.8609 19.4244L43.8609 18.7834C43.8609 18.7834 44.0745 18.7834 44.5019 18.7834L45.9828 18.7834L47.4637 18.7834L48.1047 18.7834ZM62.251 21.619C62.251 21.619 62.251 21.8326 62.251 22.26L62.251 23.7409L62.251 25.2218L62.251 25.8628L61.61 25.8628L60.129 25.8628L58.6481 25.8628L58.0071 25.8628C58.0071 25.8628 58.0071 25.6492 58.0071 25.2218L58.0071 23.7409L58.0071 22.26L58.0071 21.619C58.0071 21.619 58.2208 21.619 58.6481 21.619L60.129 21.619L61.61 21.619L62.251 21.619ZM58.7144 21.619C58.7144 21.619 58.7144 21.8326 58.7144 22.26L58.7144 23.7409L58.7144 25.2218L58.7144 25.8628L58.0734 25.8628L56.5925 25.8628L55.1116 25.8628L54.4706 25.8628C54.4706 25.8628 54.4706 25.6492 54.4706 25.2218L54.4706 23.7409L54.4706 22.26L54.4706 21.619C54.4706 21.619 54.6842 21.619 55.1116 21.619L56.5925 21.619L58.0734 21.619L58.7144 21.619ZM48.1048 21.619C48.1048 21.619 48.1048 21.8326 48.1048 22.26L48.1048 23.7409L48.1048 25.2218L48.1048 25.8628L47.4638 25.8628L45.9829 25.8628L44.5019 25.8628L43.8609 25.8628C43.8609 25.8628 43.8609 25.6492 43.8609 25.2218L43.8609 23.7409L43.8609 22.26L43.8609 21.619C43.8609 21.619 44.0746 21.619 44.5019 21.619L45.9829 21.619L47.4638 21.619L48.1048 21.619ZM62.251 25.1555C62.251 25.1555 62.251 25.3692 62.251 25.7965L62.251 27.2775L62.251 28.7584L62.251 29.3994L61.61 29.3994L60.129 29.3994L58.6481 29.3994L58.0071 29.3994C58.0071 29.3994 58.0071 29.1857 58.0071 28.7584L58.0071 27.2775L58.0071 25.7965L58.0071 25.1555C58.0071 25.1555 58.2208 25.1555 58.6481 25.1555L60.129 25.1555L61.61 25.1555L62.251 25.1555ZM55.1779 25.1555C55.1779 25.1555 55.1779 25.3692 55.1779 25.7965L55.1779 27.2775L55.1779 28.7584L55.1779 29.3994L54.5369 29.3994L53.0559 29.3994L51.575 29.3994L50.934 29.3994C50.934 29.3994 50.934 29.1857 50.934 28.7584L50.934 27.2775L50.934 25.7965L50.934 25.1555C50.934 25.1555 51.1477 25.1555 51.575 25.1555L53.0559 25.1555L54.5369 25.1555L55.1779 25.1555ZM51.6413 25.1555C51.6413 25.1555 51.6413 25.3692 51.6413 25.7965L51.6413 27.2775L51.6413 28.7584L51.6413 29.3994L51.0003 29.3994L49.5194 29.3994L48.0385 29.3994L47.3975 29.3994C47.3975 29.3994 47.3975 29.1857 47.3975 28.7584L47.3975 27.2775L47.3975 25.7965L47.3975 25.1555C47.3975 25.1555 47.6111 25.1555 48.0385 25.1555L49.5194 25.1555L51.0003 25.1555L51.6413 25.1555Z" fill="black"/>
<rect x="25.46" y="14.1411" width="11.3191" height="11.7095" fill="black"/>
<rect x="31.8965" y="15.8281" width="3.25504" height="3.3673" fill="white"/>
<rect x="3.53027" y="14.1455" width="11.3191" height="11.7095" fill="black"/>
<rect x="58.7168" y="25.8545" width="11.3191" height="11.7095" transform="rotate(-180 58.7168 25.8545)" fill="black"/>
<rect x="9.9668" y="15.8281" width="3.25504" height="3.3673" fill="white"/>
<rect x="50.3086" y="15.8281" width="3.25504" height="3.3673" fill="white"/>
</svg>
