<?xml version="1.0" encoding="UTF-8"?>
<svg viewBox="0 0 800 600" xmlns="http://www.w3.org/2000/svg">
    <!-- Participants -->
    <g id="participants" font-family="Arial" font-size="14">
        <!-- Client -->
        <rect x="50" y="20" width="100" height="40" fill="#e1f5fe" stroke="#0288d1" stroke-width="2"/>
        <text x="100" y="45" text-anchor="middle">Client</text>
        <line x1="100" y1="60" x2="100" y2="560" stroke="#0288d1" stroke-width="1" stroke-dasharray="4"/>
        
        <!-- Node -->
        <rect x="200" y="20" width="100" height="40" fill="#f3e5f5" stroke="#7b1fa2" stroke-width="2"/>
        <text x="250" y="45" text-anchor="middle">Node</text>
        <line x1="250" y1="60" x2="250" y2="560" stroke="#7b1fa2" stroke-width="1" stroke-dasharray="4"/>
        
        <!-- Validators -->
        <rect x="350" y="20" width="100" height="40" fill="#e8f5e9" stroke="#388e3c" stroke-width="2"/>
        <text x="400" y="45" text-anchor="middle">Validator 1</text>
        <line x1="400" y1="60" x2="400" y2="560" stroke="#388e3c" stroke-width="1" stroke-dasharray="4"/>
        
        <rect x="500" y="20" width="100" height="40" fill="#e8f5e9" stroke="#388e3c" stroke-width="2"/>
        <text x="550" y="45" text-anchor="middle">Validator 2</text>
        <line x1="550" y1="60" x2="550" y2="560" stroke="#388e3c" stroke-width="1" stroke-dasharray="4"/>
        
        <rect x="650" y="20" width="100" height="40" fill="#e8f5e9" stroke="#388e3c" stroke-width="2"/>
        <text x="700" y="45" text-anchor="middle">Validator 3</text>
        <line x1="700" y1="60" x2="700" y2="560" stroke="#388e3c" stroke-width="1" stroke-dasharray="4"/>
    </g>
    
    <!-- Messages -->
    <g font-family="Arial" font-size="12">
        <!-- Submit Transaction -->
        <line x1="100" y1="80" x2="250" y2="80" stroke="#000" stroke-width="2" marker-end="url(#arrow)"/>
        <text x="175" y="75">Submit Transaction</text>
        
        <!-- Broadcast Transaction -->
        <line x1="250" y1="120" x2="400" y2="120" stroke="#000" stroke-width="2" marker-end="url(#arrow)"/>
        <line x1="250" y1="140" x2="550" y2="140" stroke="#000" stroke-width="2" marker-end="url(#arrow)"/>
        <line x1="250" y1="160" x2="700" y2="160" stroke="#000" stroke-width="2" marker-end="url(#arrow)"/>
        <text x="325" y="115">Broadcast Transaction</text>
        
        <!-- Validity Attestations -->
        <line x1="400" y1="200" x2="250" y2="200" stroke="#000" stroke-width="2" stroke-dasharray="4" marker-end="url(#arrow)"/>
        <line x1="550" y1="220" x2="250" y2="220" stroke="#000" stroke-width="2" stroke-dasharray="4" marker-end="url(#arrow)"/>
        <line x1="700" y1="240" x2="250" y2="240" stroke="#000" stroke-width="2" stroke-dasharray="4" marker-end="url(#arrow)"/>
        <text x="325" y="195">Validity Attestation</text>
        
        <!-- Attestation Certificate Note -->
        <rect x="200" y="280" width="100" height="40" fill="#fff" stroke="#000"/>
        <text x="250" y="300" text-anchor="middle">Attestation</text>
        <text x="250" y="315" text-anchor="middle">Certificate</text>
        
        <!-- Broadcast Execution -->
        <line x1="250" y1="360" x2="400" y2="360" stroke="#000" stroke-width="2" marker-end="url(#arrow)"/>
        <line x1="250" y1="380" x2="550" y2="380" stroke="#000" stroke-width="2" marker-end="url(#arrow)"/>
        <line x1="250" y1="400" x2="700" y2="400" stroke="#000" stroke-width="2" marker-end="url(#arrow)"/>
        <text x="325" y="355">Broadcast Execution</text>
        
        <!-- Execution Attestations -->
        <line x1="400" y1="440" x2="250" y2="440" stroke="#000" stroke-width="2" stroke-dasharray="4" marker-end="url(#arrow)"/>
        <line x1="550" y1="460" x2="250" y2="460" stroke="#000" stroke-width="2" stroke-dasharray="4" marker-end="url(#arrow)"/>
        <line x1="700" y1="480" x2="250" y2="480" stroke="#000" stroke-width="2" stroke-dasharray="4" marker-end="url(#arrow)"/>
        <text x="325" y="435">Execution Attestation</text>
        
        <!-- Execution Certificate Note -->
        <rect x="200" y="500" width="100" height="40" fill="#fff" stroke="#000"/>
        <text x="250" y="520" text-anchor="middle">Execution</text>
        <text x="250" y="535" text-anchor="middle">Certificate</text>
        
        <!-- Return Receipt -->
        <line x1="250" y1="560" x2="100" y2="560" stroke="#000" stroke-width="2" marker-end="url(#arrow)"/>
        <text x="175" y="555">Return Certified Receipt</text>
    </g>
    
    <!-- Arrow Marker -->
    <defs>
        <marker id="arrow" markerWidth="10" markerHeight="10" refX="9" refY="3" orient="auto" markerUnits="strokeWidth">
            <path d="M0,0 L0,6 L9,3 z" fill="#000"/>
        </marker>
    </defs>
</svg>